<svg fill="#1A1A1A" xmlns:dc="http://purl.org/dc/elements/1.1/" xmlns:cc="http://creativecommons.org/ns#" xmlns:rdf="http://www.w3.org/1999/02/22-rdf-syntax-ns#" xmlns:svg="http://www.w3.org/2000/svg" xmlns="http://www.w3.org/2000/svg" xmlns:sodipodi="http://sodipodi.sourceforge.net/DTD/sodipodi-0.dtd" xmlns:inkscape="http://www.inkscape.org/namespaces/inkscape" viewBox="0 0 26 26" version="1.1" x="0px" y="0px"><g transform="translate(0,-1026.3622)"><path style="color:#000000;text-indent:0;text-decoration-line:none;text-transform:none;direction:ltr;block-progression:tb;baseline-shift:baseline;enable-background:accumulate;" d="M 13 0 C 5.8262901 0 9.81e-005 5.8263 0 13 C -7.4e-005 20.1739 5.8261687 26 13 26 C 20.173831 26 26.000074 20.1739 26 13 C 25.999902 5.8263 20.17371 0 13 0 z M 13 1.0019531 C 19.633243 1.0019531 24.999909 6.3668 25 13 C 25.000068 19.6334 19.633355 25 13 25 C 6.366645 25 0.9999315 19.6334 1 13 C 1.0000907 6.3668 6.366757 1.0019531 13 1.0019531 z M 13.353516 6.0078125 L 13.353516 6.0097656 C 13.042169 5.9937656 12.729262 5.9974375 12.416016 6.0234375 C 11.580692 6.0924375 10.74655 6.3135656 9.953125 6.6972656 C 6.7794302 8.2322656 5.2408932 11.898281 6.3691406 15.238281 C 7.4973554 18.578181 10.944069 20.561422 14.398438 19.857422 C 17.85279 19.153422 20.249335 15.979944 19.980469 12.464844 C 19.965379 12.200344 19.707555 11.974541 19.443359 11.994141 C 19.179162 12.014141 18.958222 12.275263 18.982422 12.539062 C 19.213437 15.559262 17.16532 18.2701 14.197266 18.875 C 11.2292 19.4799 8.2857925 17.785816 7.3164062 14.916016 C 6.346992 12.046316 7.6598124 8.9146031 10.386719 7.5957031 C 12.83341 6.4124031 15.71692 7.0312594 17.474609 9.0058594 L 16.5 9.0058594 C 16.235844 9.0058594 15.992188 9.2416594 15.992188 9.5058594 C 15.992188 9.7700594 16.235844 10.009659 16.5 10.005859 L 18.5 10.005859 C 18.761792 10.005859 18.999974 9.7676594 19 9.5058594 L 19 7.5058594 C 19.0042 7.2388594 18.759197 6.9938469 18.492188 6.9980469 C 18.230387 6.9980469 17.995904 7.2440594 18 7.5058594 L 18 8.1230469 C 16.754589 6.8456469 15.090408 6.0975125 13.353516 6.0078125 z M 13 11.5 C 12.177495 11.5 11.5 12.1775 11.5 13 C 11.5 13.8225 12.177495 14.5 13 14.5 C 13.822505 14.5 14.5 13.8225 14.5 13 C 14.5 12.1775 13.822505 11.5 13 11.5 z " transform="translate(0,1026.3622)" display="inline" overflow="visible" visibility="visible" fill="#1A1A1A" fill-opacity="1" fill-rule="nonzero" stroke="none"></path></g></svg>